<?xml version="1.0" encoding="iso-8859-1"?>
<!-- Generator: Adobe Illustrator 22.0.1, SVG Export Plug-In . SVG Version: 6.00 Build 0)  -->
<svg version="1.1" xmlns="http://www.w3.org/2000/svg" xmlns:xlink="http://www.w3.org/1999/xlink" x="0px" y="0px"
	 viewBox="0 0 130 55" style="enable-background:new 0 0 130 55;" xml:space="preserve">
<g id="Ebene_5" style="display:none;">
	
		<image style="display:inline;overflow:visible;" width="600" height="852" xlink:href="../IdeenFuerDashboard/darkPink.jpg"  transform="matrix(0.5866666 0 0 0.5193662 -49.0225487 -205)">
	</image>
</g>
<g id="SicherungBeschnitt" style="display:none;">
	<g id="HorizontalReechts" style="display:inline;">
		<path style="fill:#282828;" d="M115.9854889,41.1666679H13.9694138c-6.3205795,0-11.4919624-5.1713829-11.4919624-11.4919643
			v-4.0160732c0-6.3205795,5.1713829-11.4919634,11.4919624-11.4919634h102.0160751
			c6.3205795,0,11.4919586,5.1713839,11.4919586,11.4919634v4.0160732
			C127.4774475,35.995285,122.3060684,41.1666679,115.9854889,41.1666679z"/>
	</g>
	<g id="HorizontalLinks" style="display:inline;">
		<path style="fill:#282828;" d="M115.9854889,41.1666679H13.9694138c-6.3205795,0-11.4919624-5.1713829-11.4919624-11.4919643
			v-4.0160732c0-6.3205795,5.1713829-11.4919634,11.4919624-11.4919634h102.0160751
			c6.3205795,0,11.4919586,5.1713839,11.4919586,11.4919634v4.0160732
			C127.4774475,35.995285,122.3060684,41.1666679,115.9854889,41.1666679z"/>
	</g>
	
		<linearGradient id="RechteckBeschnittFuerLinks_2_" gradientUnits="userSpaceOnUse" x1="97.1355209" y1="57.1694412" x2="97.6296844" y2="15.6592808">
		<stop  offset="0" style="stop-color:#1A1A1A"/>
		<stop  offset="0.2369475" style="stop-color:#272727;stop-opacity:0.7630525"/>
		<stop  offset="0.5619906" style="stop-color:#303030;stop-opacity:0.4380094"/>
		<stop  offset="1" style="stop-color:#333333;stop-opacity:0"/>
	</linearGradient>
	
		<rect id="RechteckBeschnittFuerLinks_1_" x="64.9774475" style="display:inline;fill:url(#RechteckBeschnittFuerLinks_2_);" width="65.0225525" height="55"/>
	
		<linearGradient id="RechteckBeschnittFuerRechts_1_" gradientUnits="userSpaceOnUse" x1="32.1355209" y1="57.1691589" x2="32.6296844" y2="15.6593943">
		<stop  offset="0" style="stop-color:#1A1A1A"/>
		<stop  offset="0.2369475" style="stop-color:#272727;stop-opacity:0.7630525"/>
		<stop  offset="0.5619906" style="stop-color:#303030;stop-opacity:0.4380094"/>
		<stop  offset="1" style="stop-color:#333333;stop-opacity:0"/>
	</linearGradient>
	
		<rect id="RechteckBeschnittFuerRechts_2_" style="display:inline;fill:url(#RechteckBeschnittFuerRechts_1_);" width="64.9774475" height="55"/>
</g>
<g id="SicherungVorBeschnitt" style="display:none;">
	<g id="RunderKnopfMain_Kopie_Kopie_Kopie_2" style="display:inline;">
		<radialGradient id="SVGID_1_" cx="64.9774475" cy="27.666666" r="25" gradientUnits="userSpaceOnUse">
			<stop  offset="0" style="stop-color:#4D4D4D"/>
			<stop  offset="0.4739923" style="stop-color:#4B4B4B;stop-opacity:0.5260078"/>
			<stop  offset="0.6447368" style="stop-color:#444444;stop-opacity:0.3552632"/>
			<stop  offset="0.7664551" style="stop-color:#393939;stop-opacity:0.2335449"/>
			<stop  offset="0.8648709" style="stop-color:#282828;stop-opacity:0.1351291"/>
			<stop  offset="0.9481037" style="stop-color:#121212;stop-opacity:0.0518963"/>
			<stop  offset="1" style="stop-color:#000000;stop-opacity:0"/>
		</radialGradient>
		<circle style="fill:url(#SVGID_1_);" cx="64.9774475" cy="27.666666" r="25"/>
	</g>
	<g id="RunderKnopfMain_Kopie_Kopie_Kopie_Kopie" style="display:inline;">
		<radialGradient id="SVGID_2_" cx="57.9774513" cy="44.6666679" r="25" gradientUnits="userSpaceOnUse">
			<stop  offset="0" style="stop-color:#4D4D4D"/>
			<stop  offset="0.4739923" style="stop-color:#4B4B4B;stop-opacity:0.5260078"/>
			<stop  offset="0.6447368" style="stop-color:#444444;stop-opacity:0.3552632"/>
			<stop  offset="0.7664551" style="stop-color:#393939;stop-opacity:0.2335449"/>
			<stop  offset="0.8648709" style="stop-color:#282828;stop-opacity:0.1351291"/>
			<stop  offset="0.9481037" style="stop-color:#121212;stop-opacity:0.0518963"/>
			<stop  offset="1" style="stop-color:#000000;stop-opacity:0"/>
		</radialGradient>
		<circle style="fill:url(#SVGID_2_);" cx="57.9774513" cy="44.6666679" r="25"/>
	</g>
</g>
<g id="HorizontalHintergrund">
	<path style="fill:#555555;" d="M116.9681473,43.1666679H12.9867516c-6.880115,0-12.5093002-5.6291885-12.5093002-12.5093021
		v-5.9813976c0-6.8801155,5.6291857-12.5093012,12.5093002-12.5093012h103.9813995
		c6.8801193,0,12.5093002,5.6291857,12.5093002,12.5093012v5.9813976
		C129.4774475,37.5374794,123.8482666,43.1666679,116.9681473,43.1666679z"/>
</g>
<g id="HorizontalSchwarz">
	<path d="M116.7193604,42.6666679H13.2355452c-6.7419519,0-12.2580938-5.5161438-12.2580938-12.2580948v-5.4838123
		c0-6.741951,5.5161424-12.2580938,12.2580938-12.2580938h103.4838181c6.741951,0,12.2580872,5.5161428,12.2580872,12.2580938
		v5.4838123C128.9774475,37.1505241,123.4613113,42.6666679,116.7193604,42.6666679z"/>
</g>
<g id="HorizontalMain">
	<path style="fill:#212020;" d="M116.4725571,42.1666679H13.4823408c-6.6026893,0-12.0048895-5.4022026-12.0048895-12.0048923
		v-4.9902191c0-6.6026897,5.4022007-12.0048895,12.0048895-12.0048895h102.9902191
		c6.6026917,0,12.0048904,5.4021997,12.0048904,12.0048895v4.9902191
		C128.4774475,36.7644653,123.0752487,42.1666679,116.4725571,42.1666679z"/>
</g>
<g id="HorizontalMainGlanzOben">
	<linearGradient id="SVGID_3_" gradientUnits="userSpaceOnUse" x1="64.9774475" y1="0.3333333" x2="64.9774475" y2="31.3405018">
		<stop  offset="0" style="stop-color:#FFFFFF;stop-opacity:0.8"/>
		<stop  offset="0.358507" style="stop-color:#ABABAB;stop-opacity:0.5131944"/>
		<stop  offset="0.664289" style="stop-color:#6A6A6A;stop-opacity:0.2685688"/>
		<stop  offset="0.8855522" style="stop-color:#424242;stop-opacity:0.0915583"/>
		<stop  offset="1" style="stop-color:#333333;stop-opacity:0"/>
	</linearGradient>
	<path style="fill:url(#SVGID_3_);" d="M116.4725571,42.1666679H13.4823408
		c-6.6026893,0-12.0048895-5.4022026-12.0048895-12.0048923v-4.9902191c0-6.6026897,5.4022007-12.0048895,12.0048895-12.0048895
		h102.9902191c6.6026917,0,12.0048904,5.4021997,12.0048904,12.0048895v4.9902191
		C128.4774475,36.7644653,123.0752487,42.1666679,116.4725571,42.1666679z"/>
</g>
<g id="HorizontalGlanzUnten">
	<linearGradient id="SVGID_4_" gradientUnits="userSpaceOnUse" x1="65.0088577" y1="28.8131142" x2="65.7588577" y2="56.1881142">
		<stop  offset="0" style="stop-color:#333333;stop-opacity:0"/>
		<stop  offset="0.0138623" style="stop-color:#313131;stop-opacity:0.0138623"/>
		<stop  offset="0.2044517" style="stop-color:#1B1B1B;stop-opacity:0.2044517"/>
		<stop  offset="0.4134517" style="stop-color:#0C0C0C;stop-opacity:0.4134517"/>
		<stop  offset="0.6548164" style="stop-color:#030303;stop-opacity:0.6548164"/>
		<stop  offset="1" style="stop-color:#000000"/>
	</linearGradient>
	<path style="fill:url(#SVGID_4_);" d="M116.4725571,42.1666679H13.4823408
		c-6.6026893,0-12.0048895-5.4022026-12.0048895-12.0048923v-4.9902191c0-6.6026897,5.4022007-12.0048895,12.0048895-12.0048895
		h102.9902191c6.6026917,0,12.0048904,5.4021997,12.0048904,12.0048895v4.9902191
		C128.4774475,36.7644653,123.0752487,42.1666679,116.4725571,42.1666679z"/>
</g>
<g id="HorizontalMain_Kopie" style="display:none;">
	<path style="display:inline;fill:#BA2727;" d="M115.9854889,41.1666679H13.9694138
		c-6.3205795,0-11.4919624-5.1713829-11.4919624-11.4919643v-4.0160732c0-6.3205795,5.1713829-11.4919634,11.4919624-11.4919634
		h102.0160751c6.3205795,0,11.4919586,5.1713839,11.4919586,11.4919634v4.0160732
		C127.4774475,35.995285,122.3060684,41.1666679,115.9854889,41.1666679z"/>
</g>
<g id="RechterKnopf">
	<path id="HorizontalRechts" style="fill:#282828;" d="M115.9855042,14.166667H64.9774475v27h51.0080566
		c6.3205566,0,11.4919434-5.1713867,11.4919434-11.4920063v-4.0160522
		C127.4774475,19.3380527,122.3060608,14.166667,115.9855042,14.166667z"/>
</g>
<g id="RechterKnopfDunkler">
	
		<linearGradient id="HorizontalRechts_2_" gradientUnits="userSpaceOnUse" x1="86.5155563" y1="23.886776" x2="120.7655563" y2="46.636776">
		<stop  offset="0" style="stop-color:#1A1A1A"/>
		<stop  offset="1" style="stop-color:#333333;stop-opacity:0"/>
	</linearGradient>
	<path id="HorizontalRechts_1_" style="fill:url(#HorizontalRechts_2_);" d="M115.9855042,14.166667H64.9774475v27h51.0080566
		c6.3205566,0,11.4919434-5.1713867,11.4919434-11.4920063v-4.0160522
		C127.4774475,19.3380527,122.3060608,14.166667,115.9855042,14.166667z"/>
</g>
<g id="LinkerKnopf">
	<path style="fill:#282828;" d="M64.9774475,14.166667H13.9693947c-6.3205571,0-11.4919434,5.1713858-11.4919434,11.4919424
		v4.0160522c0,6.3206196,5.1713867,11.4920063,11.4919434,11.4920063h51.0080528V14.166667z"/>
</g>
<g id="LinkerKnopfDunkler">
	<linearGradient id="SVGID_5_" gradientUnits="userSpaceOnUse" x1="41.9207115" y1="16.8945789" x2="26.4207115" y2="45.3945808">
		<stop  offset="0" style="stop-color:#1A1A1A"/>
		<stop  offset="1" style="stop-color:#333333;stop-opacity:0"/>
	</linearGradient>
	<path style="fill:url(#SVGID_5_);" d="M64.9774475,14.166667H13.9693947c-6.3205571,0-11.4919434,5.1713858-11.4919434,11.4919424
		v4.0160522c0,6.3206196,5.1713867,11.4920063,11.4919434,11.4920063h51.0080528V14.166667z"/>
</g>
<g id="RunderKnopfHintergrund">
	<circle style="fill:#555555;" cx="64.9774475" cy="27.666666" r="27"/>
</g>
<g id="RunderKnopfSchwarz">
	<circle cx="64.9774475" cy="27.666666" r="26.5"/>
</g>
<g id="RunderKnopfMain">
	<circle style="fill:#212020;" cx="64.9774475" cy="27.666666" r="26"/>
</g>
<g id="RunderKnopfMainGlanzOben">
	<linearGradient id="SVGID_6_" gradientUnits="userSpaceOnUse" x1="64.9774475" y1="-4.5833335" x2="64.9774475" y2="49.9309998">
		<stop  offset="0" style="stop-color:#FFFFFF;stop-opacity:0.8"/>
		<stop  offset="0.0023868" style="stop-color:#FEFEFE;stop-opacity:0.7979719"/>
		<stop  offset="0.1384432" style="stop-color:#C9C9C9;stop-opacity:0.6823592"/>
		<stop  offset="0.2760799" style="stop-color:#9B9B9B;stop-opacity:0.5654036"/>
		<stop  offset="0.4127651" style="stop-color:#757575;stop-opacity:0.4492566"/>
		<stop  offset="0.5482611" style="stop-color:#585858;stop-opacity:0.3341201"/>
		<stop  offset="0.6823206" style="stop-color:#444444;stop-opacity:0.2202042"/>
		<stop  offset="0.8141946" style="stop-color:#373737;stop-opacity:0.1081455"/>
		<stop  offset="0.9414634" style="stop-color:#333333;stop-opacity:0"/>
	</linearGradient>
	<circle style="fill:url(#SVGID_6_);" cx="64.9774475" cy="27.666666" r="26"/>
</g>
<g id="RunderKnopfMainGlanzUnten_1_">
	<linearGradient id="SVGID_7_" gradientUnits="userSpaceOnUse" x1="64.9774475" y1="32.875" x2="64.9774475" y2="56.1303749">
		<stop  offset="0" style="stop-color:#333333;stop-opacity:0"/>
		<stop  offset="0.0138623" style="stop-color:#313131;stop-opacity:0.0138623"/>
		<stop  offset="0.2044517" style="stop-color:#1B1B1B;stop-opacity:0.2044517"/>
		<stop  offset="0.4134517" style="stop-color:#0C0C0C;stop-opacity:0.4134517"/>
		<stop  offset="0.6548164" style="stop-color:#030303;stop-opacity:0.6548164"/>
		<stop  offset="1" style="stop-color:#000000"/>
	</linearGradient>
	<circle style="fill:url(#SVGID_7_);" cx="64.9774475" cy="27.666666" r="26"/>
</g>
<g id="RunderKnopfSchaltflaeche">
	<circle style="fill:#282828;" cx="64.9774475" cy="27.666666" r="25"/>
</g>
<g id="RunderKnopfSchwarzSchattenInnen">
	<linearGradient id="SVGID_8_" gradientUnits="userSpaceOnUse" x1="83.5855408" y1="-5.884028" x2="61.5855408" y2="33.7826385">
		<stop  offset="0" style="stop-color:#000000"/>
		<stop  offset="1" style="stop-color:#333333;stop-opacity:0"/>
	</linearGradient>
	<path style="fill:url(#SVGID_8_);" d="M57.9774513,19.666666c13.8071251,0,24.9999962,11.1928711,24.9999962,25.0000019
		c0,0.1170044-0.0072632,0.2321777-0.0088501,0.3488159c4.3366699-4.4961548,7.0088501-10.6086426,7.0088501-17.3488178
		c0-13.807128-11.1928711-25-25-25c-13.6901207,0-24.8036461,11.0056152-24.9911461,24.6511841
		C44.5332985,22.6036167,50.9104958,19.666666,57.9774513,19.666666z"/>
</g>
</svg>
